<?xml version="1.0" encoding="utf-8" standalone="no"?>
<!DOCTYPE svg PUBLIC "-//W3C//DTD SVG 1.1//EN"
  "http://www.w3.org/Graphics/SVG/1.1/DTD/svg11.dtd">
<svg xmlns:xlink="http://www.w3.org/1999/xlink" width="432pt" height="288pt" viewBox="0 0 432 288" xmlns="http://www.w3.org/2000/svg" version="1.1">
 <metadata>
  <rdf:RDF xmlns:dc="http://purl.org/dc/elements/1.1/" xmlns:cc="http://creativecommons.org/ns#" xmlns:rdf="http://www.w3.org/1999/02/22-rdf-syntax-ns#">
   <cc:Work>
    <dc:type rdf:resource="http://purl.org/dc/dcmitype/StillImage"/>
    <dc:date>2025-11-04T15:43:32.201716</dc:date>
    <dc:format>image/svg+xml</dc:format>
    <dc:creator>
     <cc:Agent>
      <dc:title>Matplotlib v3.10.7, https://matplotlib.org/</dc:title>
     </cc:Agent>
    </dc:creator>
   </cc:Work>
  </rdf:RDF>
 </metadata>
 <defs>
  <style type="text/css">*{stroke-linejoin: round; stroke-linecap: butt}</style>
 </defs>
 <g id="figure_1">
  <g id="patch_1">
   <path d="M 0 288 
L 432 288 
L 432 0 
L 0 0 
z
" style="fill: #ffffff"/>
  </g>
  <g id="axes_1">
   <g id="patch_2">
    <path d="M 46.55 246.04 
L 414.855 246.04 
L 414.855 70.224 
L 46.55 70.224 
z
" style="fill: #ffffff"/>
   </g>
   <g id="matplotlib.axis_1">
    <g id="xtick_1">
     <g id="line2d_1">
      <path d="M 71.103667 246.04 
L 71.103667 70.224 
" clip-path="url(#pf2861fff87)" style="fill: none; stroke: #b0b0b0; stroke-width: 0.8; stroke-linecap: square"/>
     </g>
     <g id="line2d_2">
      <defs>
       <path id="m514d510be3" d="M 0 0 
L 0 3.5 
" style="stroke: #000000; stroke-width: 0.8"/>
      </defs>
      <g>
       <use xlink:href="#m514d510be3" x="71.103667" y="246.04" style="stroke: #000000; stroke-width: 0.8"/>
      </g>
     </g>
     <g id="text_1">
      <!-- −4 -->
      <g transform="translate(63.732573 260.638438) scale(0.1 -0.1)">
       <defs>
        <path id="DejaVuSans-2212" d="M 678 2272 
L 4684 2272 
L 4684 1741 
L 678 1741 
L 678 2272 
z
" transform="scale(0.015625)"/>
        <path id="DejaVuSans-34" d="M 2419 4116 
L 825 1625 
L 2419 1625 
L 2419 4116 
z
M 2253 4666 
L 3047 4666 
L 3047 1625 
L 3713 1625 
L 3713 1100 
L 3047 1100 
L 3047 0 
L 2419 0 
L 2419 1100 
L 313 1100 
L 313 1709 
L 2253 4666 
z
" transform="scale(0.015625)"/>
       </defs>
       <use xlink:href="#DejaVuSans-2212"/>
       <use xlink:href="#DejaVuSans-34" transform="translate(83.789062 0)"/>
      </g>
     </g>
    </g>
    <g id="xtick_2">
     <g id="line2d_3">
      <path d="M 120.211 246.04 
L 120.211 70.224 
" clip-path="url(#pf2861fff87)" style="fill: none; stroke: #b0b0b0; stroke-width: 0.8; stroke-linecap: square"/>
     </g>
     <g id="line2d_4">
      <g>
       <use xlink:href="#m514d510be3" x="120.211" y="246.04" style="stroke: #000000; stroke-width: 0.8"/>
      </g>
     </g>
     <g id="text_2">
      <!-- −2 -->
      <g transform="translate(112.839906 260.638438) scale(0.1 -0.1)">
       <defs>
        <path id="DejaVuSans-32" d="M 1228 531 
L 3431 531 
L 3431 0 
L 469 0 
L 469 531 
Q 828 903 1448 1529 
Q 2069 2156 2228 2338 
Q 2531 2678 2651 2914 
Q 2772 3150 2772 3378 
Q 2772 3750 2511 3984 
Q 2250 4219 1831 4219 
Q 1534 4219 1204 4116 
Q 875 4013 500 3803 
L 500 4441 
Q 881 4594 1212 4672 
Q 1544 4750 1819 4750 
Q 2544 4750 2975 4387 
Q 3406 4025 3406 3419 
Q 3406 3131 3298 2873 
Q 3191 2616 2906 2266 
Q 2828 2175 2409 1742 
Q 1991 1309 1228 531 
z
" transform="scale(0.015625)"/>
       </defs>
       <use xlink:href="#DejaVuSans-2212"/>
       <use xlink:href="#DejaVuSans-32" transform="translate(83.789062 0)"/>
      </g>
     </g>
    </g>
    <g id="xtick_3">
     <g id="line2d_5">
      <path d="M 169.318333 246.04 
L 169.318333 70.224 
" clip-path="url(#pf2861fff87)" style="fill: none; stroke: #b0b0b0; stroke-width: 0.8; stroke-linecap: square"/>
     </g>
     <g id="line2d_6">
      <g>
       <use xlink:href="#m514d510be3" x="169.318333" y="246.04" style="stroke: #000000; stroke-width: 0.8"/>
      </g>
     </g>
     <g id="text_3">
      <!-- 0 -->
      <g transform="translate(166.137083 260.638438) scale(0.1 -0.1)">
       <defs>
        <path id="DejaVuSans-30" d="M 2034 4250 
Q 1547 4250 1301 3770 
Q 1056 3291 1056 2328 
Q 1056 1369 1301 889 
Q 1547 409 2034 409 
Q 2525 409 2770 889 
Q 3016 1369 3016 2328 
Q 3016 3291 2770 3770 
Q 2525 4250 2034 4250 
z
M 2034 4750 
Q 2819 4750 3233 4129 
Q 3647 3509 3647 2328 
Q 3647 1150 3233 529 
Q 2819 -91 2034 -91 
Q 1250 -91 836 529 
Q 422 1150 422 2328 
Q 422 3509 836 4129 
Q 1250 4750 2034 4750 
z
" transform="scale(0.015625)"/>
       </defs>
       <use xlink:href="#DejaVuSans-30"/>
      </g>
     </g>
    </g>
    <g id="xtick_4">
     <g id="line2d_7">
      <path d="M 218.425667 246.04 
L 218.425667 70.224 
" clip-path="url(#pf2861fff87)" style="fill: none; stroke: #b0b0b0; stroke-width: 0.8; stroke-linecap: square"/>
     </g>
     <g id="line2d_8">
      <g>
       <use xlink:href="#m514d510be3" x="218.425667" y="246.04" style="stroke: #000000; stroke-width: 0.8"/>
      </g>
     </g>
     <g id="text_4">
      <!-- 2 -->
      <g transform="translate(215.244417 260.638438) scale(0.1 -0.1)">
       <use xlink:href="#DejaVuSans-32"/>
      </g>
     </g>
    </g>
    <g id="xtick_5">
     <g id="line2d_9">
      <path d="M 267.533 246.04 
L 267.533 70.224 
" clip-path="url(#pf2861fff87)" style="fill: none; stroke: #b0b0b0; stroke-width: 0.8; stroke-linecap: square"/>
     </g>
     <g id="line2d_10">
      <g>
       <use xlink:href="#m514d510be3" x="267.533" y="246.04" style="stroke: #000000; stroke-width: 0.8"/>
      </g>
     </g>
     <g id="text_5">
      <!-- 4 -->
      <g transform="translate(264.35175 260.638438) scale(0.1 -0.1)">
       <use xlink:href="#DejaVuSans-34"/>
      </g>
     </g>
    </g>
    <g id="xtick_6">
     <g id="line2d_11">
      <path d="M 316.640333 246.04 
L 316.640333 70.224 
" clip-path="url(#pf2861fff87)" style="fill: none; stroke: #b0b0b0; stroke-width: 0.8; stroke-linecap: square"/>
     </g>
     <g id="line2d_12">
      <g>
       <use xlink:href="#m514d510be3" x="316.640333" y="246.04" style="stroke: #000000; stroke-width: 0.8"/>
      </g>
     </g>
     <g id="text_6">
      <!-- 6 -->
      <g transform="translate(313.459083 260.638438) scale(0.1 -0.1)">
       <defs>
        <path id="DejaVuSans-36" d="M 2113 2584 
Q 1688 2584 1439 2293 
Q 1191 2003 1191 1497 
Q 1191 994 1439 701 
Q 1688 409 2113 409 
Q 2538 409 2786 701 
Q 3034 994 3034 1497 
Q 3034 2003 2786 2293 
Q 2538 2584 2113 2584 
z
M 3366 4563 
L 3366 3988 
Q 3128 4100 2886 4159 
Q 2644 4219 2406 4219 
Q 1781 4219 1451 3797 
Q 1122 3375 1075 2522 
Q 1259 2794 1537 2939 
Q 1816 3084 2150 3084 
Q 2853 3084 3261 2657 
Q 3669 2231 3669 1497 
Q 3669 778 3244 343 
Q 2819 -91 2113 -91 
Q 1303 -91 875 529 
Q 447 1150 447 2328 
Q 447 3434 972 4092 
Q 1497 4750 2381 4750 
Q 2619 4750 2861 4703 
Q 3103 4656 3366 4563 
z
" transform="scale(0.015625)"/>
       </defs>
       <use xlink:href="#DejaVuSans-36"/>
      </g>
     </g>
    </g>
    <g id="xtick_7">
     <g id="line2d_13">
      <path d="M 365.747667 246.04 
L 365.747667 70.224 
" clip-path="url(#pf2861fff87)" style="fill: none; stroke: #b0b0b0; stroke-width: 0.8; stroke-linecap: square"/>
     </g>
     <g id="line2d_14">
      <g>
       <use xlink:href="#m514d510be3" x="365.747667" y="246.04" style="stroke: #000000; stroke-width: 0.8"/>
      </g>
     </g>
     <g id="text_7">
      <!-- 8 -->
      <g transform="translate(362.566417 260.638438) scale(0.1 -0.1)">
       <defs>
        <path id="DejaVuSans-38" d="M 2034 2216 
Q 1584 2216 1326 1975 
Q 1069 1734 1069 1313 
Q 1069 891 1326 650 
Q 1584 409 2034 409 
Q 2484 409 2743 651 
Q 3003 894 3003 1313 
Q 3003 1734 2745 1975 
Q 2488 2216 2034 2216 
z
M 1403 2484 
Q 997 2584 770 2862 
Q 544 3141 544 3541 
Q 544 4100 942 4425 
Q 1341 4750 2034 4750 
Q 2731 4750 3128 4425 
Q 3525 4100 3525 3541 
Q 3525 3141 3298 2862 
Q 3072 2584 2669 2484 
Q 3125 2378 3379 2068 
Q 3634 1759 3634 1313 
Q 3634 634 3220 271 
Q 2806 -91 2034 -91 
Q 1263 -91 848 271 
Q 434 634 434 1313 
Q 434 1759 690 2068 
Q 947 2378 1403 2484 
z
M 1172 3481 
Q 1172 3119 1398 2916 
Q 1625 2713 2034 2713 
Q 2441 2713 2670 2916 
Q 2900 3119 2900 3481 
Q 2900 3844 2670 4047 
Q 2441 4250 2034 4250 
Q 1625 4250 1398 4047 
Q 1172 3844 1172 3481 
z
" transform="scale(0.015625)"/>
       </defs>
       <use xlink:href="#DejaVuSans-38"/>
      </g>
     </g>
    </g>
    <g id="xtick_8">
     <g id="line2d_15">
      <path d="M 414.855 246.04 
L 414.855 70.224 
" clip-path="url(#pf2861fff87)" style="fill: none; stroke: #b0b0b0; stroke-width: 0.8; stroke-linecap: square"/>
     </g>
     <g id="line2d_16">
      <g>
       <use xlink:href="#m514d510be3" x="414.855" y="246.04" style="stroke: #000000; stroke-width: 0.8"/>
      </g>
     </g>
     <g id="text_8">
      <!-- 10 -->
      <g transform="translate(408.4925 260.638438) scale(0.1 -0.1)">
       <defs>
        <path id="DejaVuSans-31" d="M 794 531 
L 1825 531 
L 1825 4091 
L 703 3866 
L 703 4441 
L 1819 4666 
L 2450 4666 
L 2450 531 
L 3481 531 
L 3481 0 
L 794 0 
L 794 531 
z
" transform="scale(0.015625)"/>
       </defs>
       <use xlink:href="#DejaVuSans-31"/>
       <use xlink:href="#DejaVuSans-30" transform="translate(63.623047 0)"/>
      </g>
     </g>
    </g>
    <g id="text_9">
     <!-- x -->
     <g transform="translate(227.743125 274.316562) scale(0.1 -0.1)">
      <defs>
       <path id="DejaVuSans-78" d="M 3513 3500 
L 2247 1797 
L 3578 0 
L 2900 0 
L 1881 1375 
L 863 0 
L 184 0 
L 1544 1831 
L 300 3500 
L 978 3500 
L 1906 2253 
L 2834 3500 
L 3513 3500 
z
" transform="scale(0.015625)"/>
      </defs>
      <use xlink:href="#DejaVuSans-78"/>
     </g>
    </g>
   </g>
   <g id="matplotlib.axis_2">
    <g id="ytick_1">
     <g id="line2d_17">
      <path d="M 46.55 230.526824 
L 414.855 230.526824 
" clip-path="url(#pf2861fff87)" style="fill: none; stroke: #b0b0b0; stroke-width: 0.8; stroke-linecap: square"/>
     </g>
     <g id="line2d_18">
      <defs>
       <path id="m4d987117ab" d="M 0 0 
L -3.5 0 
" style="stroke: #000000; stroke-width: 0.8"/>
      </defs>
      <g>
       <use xlink:href="#m4d987117ab" x="46.55" y="230.526824" style="stroke: #000000; stroke-width: 0.8"/>
      </g>
     </g>
     <g id="text_10">
      <!-- −2.5 -->
      <g transform="translate(15.267188 234.326042) scale(0.1 -0.1)">
       <defs>
        <path id="DejaVuSans-2e" d="M 684 794 
L 1344 794 
L 1344 0 
L 684 0 
L 684 794 
z
" transform="scale(0.015625)"/>
        <path id="DejaVuSans-35" d="M 691 4666 
L 3169 4666 
L 3169 4134 
L 1269 4134 
L 1269 2991 
Q 1406 3038 1543 3061 
Q 1681 3084 1819 3084 
Q 2600 3084 3056 2656 
Q 3513 2228 3513 1497 
Q 3513 744 3044 326 
Q 2575 -91 1722 -91 
Q 1428 -91 1123 -41 
Q 819 9 494 109 
L 494 744 
Q 775 591 1075 516 
Q 1375 441 1709 441 
Q 2250 441 2565 725 
Q 2881 1009 2881 1497 
Q 2881 1984 2565 2268 
Q 2250 2553 1709 2553 
Q 1456 2553 1204 2497 
Q 953 2441 691 2322 
L 691 4666 
z
" transform="scale(0.015625)"/>
       </defs>
       <use xlink:href="#DejaVuSans-2212"/>
       <use xlink:href="#DejaVuSans-32" transform="translate(83.789062 0)"/>
       <use xlink:href="#DejaVuSans-2e" transform="translate(147.412109 0)"/>
       <use xlink:href="#DejaVuSans-35" transform="translate(179.199219 0)"/>
      </g>
     </g>
    </g>
    <g id="ytick_2">
     <g id="line2d_19">
      <path d="M 46.55 204.671529 
L 414.855 204.671529 
" clip-path="url(#pf2861fff87)" style="fill: none; stroke: #b0b0b0; stroke-width: 0.8; stroke-linecap: square"/>
     </g>
     <g id="line2d_20">
      <g>
       <use xlink:href="#m4d987117ab" x="46.55" y="204.671529" style="stroke: #000000; stroke-width: 0.8"/>
      </g>
     </g>
     <g id="text_11">
      <!-- 0.0 -->
      <g transform="translate(23.646875 208.470748) scale(0.1 -0.1)">
       <use xlink:href="#DejaVuSans-30"/>
       <use xlink:href="#DejaVuSans-2e" transform="translate(63.623047 0)"/>
       <use xlink:href="#DejaVuSans-30" transform="translate(95.410156 0)"/>
      </g>
     </g>
    </g>
    <g id="ytick_3">
     <g id="line2d_21">
      <path d="M 46.55 178.816235 
L 414.855 178.816235 
" clip-path="url(#pf2861fff87)" style="fill: none; stroke: #b0b0b0; stroke-width: 0.8; stroke-linecap: square"/>
     </g>
     <g id="line2d_22">
      <g>
       <use xlink:href="#m4d987117ab" x="46.55" y="178.816235" style="stroke: #000000; stroke-width: 0.8"/>
      </g>
     </g>
     <g id="text_12">
      <!-- 2.5 -->
      <g transform="translate(23.646875 182.615454) scale(0.1 -0.1)">
       <use xlink:href="#DejaVuSans-32"/>
       <use xlink:href="#DejaVuSans-2e" transform="translate(63.623047 0)"/>
       <use xlink:href="#DejaVuSans-35" transform="translate(95.410156 0)"/>
      </g>
     </g>
    </g>
    <g id="ytick_4">
     <g id="line2d_23">
      <path d="M 46.55 152.960941 
L 414.855 152.960941 
" clip-path="url(#pf2861fff87)" style="fill: none; stroke: #b0b0b0; stroke-width: 0.8; stroke-linecap: square"/>
     </g>
     <g id="line2d_24">
      <g>
       <use xlink:href="#m4d987117ab" x="46.55" y="152.960941" style="stroke: #000000; stroke-width: 0.8"/>
      </g>
     </g>
     <g id="text_13">
      <!-- 5.0 -->
      <g transform="translate(23.646875 156.76016) scale(0.1 -0.1)">
       <use xlink:href="#DejaVuSans-35"/>
       <use xlink:href="#DejaVuSans-2e" transform="translate(63.623047 0)"/>
       <use xlink:href="#DejaVuSans-30" transform="translate(95.410156 0)"/>
      </g>
     </g>
    </g>
    <g id="ytick_5">
     <g id="line2d_25">
      <path d="M 46.55 127.105647 
L 414.855 127.105647 
" clip-path="url(#pf2861fff87)" style="fill: none; stroke: #b0b0b0; stroke-width: 0.8; stroke-linecap: square"/>
     </g>
     <g id="line2d_26">
      <g>
       <use xlink:href="#m4d987117ab" x="46.55" y="127.105647" style="stroke: #000000; stroke-width: 0.8"/>
      </g>
     </g>
     <g id="text_14">
      <!-- 7.5 -->
      <g transform="translate(23.646875 130.904866) scale(0.1 -0.1)">
       <defs>
        <path id="DejaVuSans-37" d="M 525 4666 
L 3525 4666 
L 3525 4397 
L 1831 0 
L 1172 0 
L 2766 4134 
L 525 4134 
L 525 4666 
z
" transform="scale(0.015625)"/>
       </defs>
       <use xlink:href="#DejaVuSans-37"/>
       <use xlink:href="#DejaVuSans-2e" transform="translate(63.623047 0)"/>
       <use xlink:href="#DejaVuSans-35" transform="translate(95.410156 0)"/>
      </g>
     </g>
    </g>
    <g id="ytick_6">
     <g id="line2d_27">
      <path d="M 46.55 101.250353 
L 414.855 101.250353 
" clip-path="url(#pf2861fff87)" style="fill: none; stroke: #b0b0b0; stroke-width: 0.8; stroke-linecap: square"/>
     </g>
     <g id="line2d_28">
      <g>
       <use xlink:href="#m4d987117ab" x="46.55" y="101.250353" style="stroke: #000000; stroke-width: 0.8"/>
      </g>
     </g>
     <g id="text_15">
      <!-- 10.0 -->
      <g transform="translate(17.284375 105.049572) scale(0.1 -0.1)">
       <use xlink:href="#DejaVuSans-31"/>
       <use xlink:href="#DejaVuSans-30" transform="translate(63.623047 0)"/>
       <use xlink:href="#DejaVuSans-2e" transform="translate(127.246094 0)"/>
       <use xlink:href="#DejaVuSans-30" transform="translate(159.033203 0)"/>
      </g>
     </g>
    </g>
    <g id="ytick_7">
     <g id="line2d_29">
      <path d="M 46.55 75.395059 
L 414.855 75.395059 
" clip-path="url(#pf2861fff87)" style="fill: none; stroke: #b0b0b0; stroke-width: 0.8; stroke-linecap: square"/>
     </g>
     <g id="line2d_30">
      <g>
       <use xlink:href="#m4d987117ab" x="46.55" y="75.395059" style="stroke: #000000; stroke-width: 0.8"/>
      </g>
     </g>
     <g id="text_16">
      <!-- 12.5 -->
      <g transform="translate(17.284375 79.194278) scale(0.1 -0.1)">
       <use xlink:href="#DejaVuSans-31"/>
       <use xlink:href="#DejaVuSans-32" transform="translate(63.623047 0)"/>
       <use xlink:href="#DejaVuSans-2e" transform="translate(127.246094 0)"/>
       <use xlink:href="#DejaVuSans-35" transform="translate(159.033203 0)"/>
      </g>
     </g>
    </g>
    <g id="text_17">
     <!-- y -->
     <g transform="translate(9.1875 161.091375) rotate(-90) scale(0.1 -0.1)">
      <defs>
       <path id="DejaVuSans-79" d="M 2059 -325 
Q 1816 -950 1584 -1140 
Q 1353 -1331 966 -1331 
L 506 -1331 
L 506 -850 
L 844 -850 
Q 1081 -850 1212 -737 
Q 1344 -625 1503 -206 
L 1606 56 
L 191 3500 
L 800 3500 
L 1894 763 
L 2988 3500 
L 3597 3500 
L 2059 -325 
z
" transform="scale(0.015625)"/>
      </defs>
      <use xlink:href="#DejaVuSans-79"/>
     </g>
    </g>
   </g>
   <g id="line2d_31">
    <path d="M 136.66267 289 
L 138.930132 258.791378 
L 141.177017 231.785558 
L 143.350234 208.294509 
L 145.449782 187.927111 
L 147.512497 170.027921 
L 149.501543 154.645677 
L 151.453754 141.24643 
L 153.332298 129.857296 
L 155.137173 120.231411 
L 156.905214 111.987166 
L 158.599586 105.129302 
L 160.22029 99.474689 
L 161.767326 94.859948 
L 163.240693 91.139594 
L 164.640392 88.184326 
L 165.966423 85.879461 
L 167.218785 84.123494 
L 168.434313 82.791651 
L 169.576173 81.859258 
L 170.681198 81.23745 
L 171.749389 80.886772 
L 172.817581 80.771036 
L 173.885772 80.879337 
L 174.990798 81.215717 
L 176.169491 81.812998 
L 177.421854 82.702116 
L 178.784718 83.948904 
L 180.29492 85.646151 
L 181.952458 87.859576 
L 183.794167 90.707823 
L 185.856882 94.328206 
L 188.177435 98.868917 
L 190.866331 104.64084 
L 194.107739 112.155305 
L 198.454172 122.843799 
L 210.204277 152.023005 
L 213.887695 160.414096 
L 217.055435 167.093729 
L 219.891667 172.572441 
L 222.506894 177.152684 
L 224.93795 180.970416 
L 227.184835 184.099398 
L 229.321218 186.703253 
L 231.347098 188.82797 
L 233.262476 190.522012 
L 235.104185 191.858627 
L 236.872226 192.870455 
L 238.566598 193.590488 
L 240.224136 194.059396 
L 241.881675 194.297419 
L 243.539213 194.307602 
L 245.196751 194.094046 
L 246.891124 193.64987 
L 248.659164 192.950074 
L 250.500874 191.973977 
L 252.416251 190.703684 
L 254.478965 189.061699 
L 256.689016 187.010633 
L 259.120073 184.440021 
L 261.808968 181.264259 
L 264.976708 177.16222 
L 269.102136 171.427366 
L 278.016009 158.932982 
L 280.962743 155.253337 
L 283.356965 152.605215 
L 285.419679 150.641782 
L 287.261389 149.188113 
L 288.918927 148.158873 
L 290.429128 147.480187 
L 291.828827 147.094851 
L 293.118024 146.965933 
L 294.370386 147.064629 
L 295.585914 147.386559 
L 296.801442 147.946139 
L 298.01697 148.758419 
L 299.232498 149.838753 
L 300.48486 151.248731 
L 301.810891 153.089329 
L 303.173756 155.375554 
L 304.573455 158.164237 
L 306.046822 161.610371 
L 307.557024 165.718026 
L 309.140894 170.688645 
L 310.761598 176.518225 
L 312.45597 183.464006 
L 314.187177 191.512063 
L 315.992052 200.986309 
L 317.833761 211.860665 
L 319.749138 224.538304 
L 321.70135 238.978317 
L 323.72723 255.677654 
L 325.789944 274.57736 
L 327.233496 289 
L 327.233496 289 
" clip-path="url(#pf2861fff87)" style="fill: none; stroke: #a18262; stroke-width: 1.5; stroke-linecap: square"/>
   </g>
   <g id="line2d_32">
    <path d="M 144.764667 194.329412 
" clip-path="url(#pf2861fff87)" style="fill: none; stroke: #f7dc6f; stroke-width: 1.5; stroke-linecap: square"/>
    <defs>
     <path id="m0e6f91777a" d="M 0 3 
C 0.795609 3 1.55874 2.683901 2.12132 2.12132 
C 2.683901 1.55874 3 0.795609 3 0 
C 3 -0.795609 2.683901 -1.55874 2.12132 -2.12132 
C 1.55874 -2.683901 0.795609 -3 0 -3 
C -0.795609 -3 -1.55874 -2.683901 -2.12132 -2.12132 
C -2.683901 -1.55874 -3 -0.795609 -3 0 
C -3 0.795609 -2.683901 1.55874 -2.12132 2.12132 
C -1.55874 2.683901 -0.795609 3 0 3 
z
" style="stroke: #f7dc6f"/>
    </defs>
    <g clip-path="url(#pf2861fff87)">
     <use xlink:href="#m0e6f91777a" x="144.764667" y="194.329412" style="fill: #f7dc6f; stroke: #f7dc6f"/>
    </g>
   </g>
   <g id="line2d_33">
    <path d="M 193.872 111.592471 
" clip-path="url(#pf2861fff87)" style="fill: none; stroke: #f7dc6f; stroke-width: 1.5; stroke-linecap: square"/>
    <g clip-path="url(#pf2861fff87)">
     <use xlink:href="#m0e6f91777a" x="193.872" y="111.592471" style="fill: #f7dc6f; stroke: #f7dc6f"/>
    </g>
   </g>
   <g id="line2d_34">
    <path d="M 242.979333 194.329412 
" clip-path="url(#pf2861fff87)" style="fill: none; stroke: #f7dc6f; stroke-width: 1.5; stroke-linecap: square"/>
    <g clip-path="url(#pf2861fff87)">
     <use xlink:href="#m0e6f91777a" x="242.979333" y="194.329412" style="fill: #f7dc6f; stroke: #f7dc6f"/>
    </g>
   </g>
   <g id="line2d_35">
    <path d="M 267.533 173.645176 
" clip-path="url(#pf2861fff87)" style="fill: none; stroke: #f7dc6f; stroke-width: 1.5; stroke-linecap: square"/>
    <g clip-path="url(#pf2861fff87)">
     <use xlink:href="#m0e6f91777a" x="267.533" y="173.645176" style="fill: #f7dc6f; stroke: #f7dc6f"/>
    </g>
   </g>
   <g id="line2d_36">
    <path d="M 316.640333 204.671529 
" clip-path="url(#pf2861fff87)" style="fill: none; stroke: #f7dc6f; stroke-width: 1.5; stroke-linecap: square"/>
    <g clip-path="url(#pf2861fff87)">
     <use xlink:href="#m0e6f91777a" x="316.640333" y="204.671529" style="fill: #f7dc6f; stroke: #f7dc6f"/>
    </g>
   </g>
   <g id="line2d_37">
    <path d="M 46.55 204.671529 
L 414.855 204.671529 
" clip-path="url(#pf2861fff87)" style="fill: none; stroke-dasharray: 3.7,1.6; stroke-dashoffset: 0; stroke: #ff0000"/>
   </g>
   <g id="line2d_38">
    <path d="M 169.318333 246.04 
L 169.318333 70.224 
" clip-path="url(#pf2861fff87)" style="fill: none; stroke-dasharray: 3.7,1.6; stroke-dashoffset: 0; stroke: #ff0000"/>
   </g>
   <g id="patch_3">
    <path d="M 46.55 246.04 
L 46.55 70.224 
" style="fill: none; stroke: #000000; stroke-width: 0.8; stroke-linejoin: miter; stroke-linecap: square"/>
   </g>
   <g id="patch_4">
    <path d="M 414.855 246.04 
L 414.855 70.224 
" style="fill: none; stroke: #000000; stroke-width: 0.8; stroke-linejoin: miter; stroke-linecap: square"/>
   </g>
   <g id="patch_5">
    <path d="M 46.55 246.04 
L 414.855 246.04 
" style="fill: none; stroke: #000000; stroke-width: 0.8; stroke-linejoin: miter; stroke-linecap: square"/>
   </g>
   <g id="patch_6">
    <path d="M 46.55 70.224 
L 414.855 70.224 
" style="fill: none; stroke: #000000; stroke-width: 0.8; stroke-linejoin: miter; stroke-linecap: square"/>
   </g>
   <g id="text_18">
    <!-- (-1.0, 1.0) -->
    <g transform="translate(144.764667 192.457693) scale(0.09 -0.09)">
     <defs>
      <path id="DejaVuSans-28" d="M 1984 4856 
Q 1566 4138 1362 3434 
Q 1159 2731 1159 2009 
Q 1159 1288 1364 580 
Q 1569 -128 1984 -844 
L 1484 -844 
Q 1016 -109 783 600 
Q 550 1309 550 2009 
Q 550 2706 781 3412 
Q 1013 4119 1484 4856 
L 1984 4856 
z
" transform="scale(0.015625)"/>
      <path id="DejaVuSans-2d" d="M 313 2009 
L 1997 2009 
L 1997 1497 
L 313 1497 
L 313 2009 
z
" transform="scale(0.015625)"/>
      <path id="DejaVuSans-2c" d="M 750 794 
L 1409 794 
L 1409 256 
L 897 -744 
L 494 -744 
L 750 256 
L 750 794 
z
" transform="scale(0.015625)"/>
      <path id="DejaVuSans-20" transform="scale(0.015625)"/>
      <path id="DejaVuSans-29" d="M 513 4856 
L 1013 4856 
Q 1481 4119 1714 3412 
Q 1947 2706 1947 2009 
Q 1947 1309 1714 600 
Q 1481 -109 1013 -844 
L 513 -844 
Q 928 -128 1133 580 
Q 1338 1288 1338 2009 
Q 1338 2731 1133 3434 
Q 928 4138 513 4856 
z
" transform="scale(0.015625)"/>
     </defs>
     <use xlink:href="#DejaVuSans-28"/>
     <use xlink:href="#DejaVuSans-2d" transform="translate(39.013672 0)"/>
     <use xlink:href="#DejaVuSans-31" transform="translate(75.097656 0)"/>
     <use xlink:href="#DejaVuSans-2e" transform="translate(138.720703 0)"/>
     <use xlink:href="#DejaVuSans-30" transform="translate(170.507812 0)"/>
     <use xlink:href="#DejaVuSans-2c" transform="translate(234.130859 0)"/>
     <use xlink:href="#DejaVuSans-20" transform="translate(265.917969 0)"/>
     <use xlink:href="#DejaVuSans-31" transform="translate(297.705078 0)"/>
     <use xlink:href="#DejaVuSans-2e" transform="translate(361.328125 0)"/>
     <use xlink:href="#DejaVuSans-30" transform="translate(393.115234 0)"/>
     <use xlink:href="#DejaVuSans-29" transform="translate(456.738281 0)"/>
    </g>
   </g>
   <g id="text_19">
    <!-- (1.0, 9.0) -->
    <g transform="translate(193.872 109.720752) scale(0.09 -0.09)">
     <defs>
      <path id="DejaVuSans-39" d="M 703 97 
L 703 672 
Q 941 559 1184 500 
Q 1428 441 1663 441 
Q 2288 441 2617 861 
Q 2947 1281 2994 2138 
Q 2813 1869 2534 1725 
Q 2256 1581 1919 1581 
Q 1219 1581 811 2004 
Q 403 2428 403 3163 
Q 403 3881 828 4315 
Q 1253 4750 1959 4750 
Q 2769 4750 3195 4129 
Q 3622 3509 3622 2328 
Q 3622 1225 3098 567 
Q 2575 -91 1691 -91 
Q 1453 -91 1209 -44 
Q 966 3 703 97 
z
M 1959 2075 
Q 2384 2075 2632 2365 
Q 2881 2656 2881 3163 
Q 2881 3666 2632 3958 
Q 2384 4250 1959 4250 
Q 1534 4250 1286 3958 
Q 1038 3666 1038 3163 
Q 1038 2656 1286 2365 
Q 1534 2075 1959 2075 
z
" transform="scale(0.015625)"/>
     </defs>
     <use xlink:href="#DejaVuSans-28"/>
     <use xlink:href="#DejaVuSans-31" transform="translate(39.013672 0)"/>
     <use xlink:href="#DejaVuSans-2e" transform="translate(102.636719 0)"/>
     <use xlink:href="#DejaVuSans-30" transform="translate(134.423828 0)"/>
     <use xlink:href="#DejaVuSans-2c" transform="translate(198.046875 0)"/>
     <use xlink:href="#DejaVuSans-20" transform="translate(229.833984 0)"/>
     <use xlink:href="#DejaVuSans-39" transform="translate(261.621094 0)"/>
     <use xlink:href="#DejaVuSans-2e" transform="translate(325.244141 0)"/>
     <use xlink:href="#DejaVuSans-30" transform="translate(357.03125 0)"/>
     <use xlink:href="#DejaVuSans-29" transform="translate(420.654297 0)"/>
    </g>
   </g>
   <g id="text_20">
    <!-- (3.0, 1.0) -->
    <g transform="translate(242.979333 192.457693) scale(0.09 -0.09)">
     <defs>
      <path id="DejaVuSans-33" d="M 2597 2516 
Q 3050 2419 3304 2112 
Q 3559 1806 3559 1356 
Q 3559 666 3084 287 
Q 2609 -91 1734 -91 
Q 1441 -91 1130 -33 
Q 819 25 488 141 
L 488 750 
Q 750 597 1062 519 
Q 1375 441 1716 441 
Q 2309 441 2620 675 
Q 2931 909 2931 1356 
Q 2931 1769 2642 2001 
Q 2353 2234 1838 2234 
L 1294 2234 
L 1294 2753 
L 1863 2753 
Q 2328 2753 2575 2939 
Q 2822 3125 2822 3475 
Q 2822 3834 2567 4026 
Q 2313 4219 1838 4219 
Q 1578 4219 1281 4162 
Q 984 4106 628 3988 
L 628 4550 
Q 988 4650 1302 4700 
Q 1616 4750 1894 4750 
Q 2613 4750 3031 4423 
Q 3450 4097 3450 3541 
Q 3450 3153 3228 2886 
Q 3006 2619 2597 2516 
z
" transform="scale(0.015625)"/>
     </defs>
     <use xlink:href="#DejaVuSans-28"/>
     <use xlink:href="#DejaVuSans-33" transform="translate(39.013672 0)"/>
     <use xlink:href="#DejaVuSans-2e" transform="translate(102.636719 0)"/>
     <use xlink:href="#DejaVuSans-30" transform="translate(134.423828 0)"/>
     <use xlink:href="#DejaVuSans-2c" transform="translate(198.046875 0)"/>
     <use xlink:href="#DejaVuSans-20" transform="translate(229.833984 0)"/>
     <use xlink:href="#DejaVuSans-31" transform="translate(261.621094 0)"/>
     <use xlink:href="#DejaVuSans-2e" transform="translate(325.244141 0)"/>
     <use xlink:href="#DejaVuSans-30" transform="translate(357.03125 0)"/>
     <use xlink:href="#DejaVuSans-29" transform="translate(420.654297 0)"/>
    </g>
   </g>
   <g id="text_21">
    <!-- (4.0, 3.0) -->
    <g transform="translate(267.533 171.773458) scale(0.09 -0.09)">
     <use xlink:href="#DejaVuSans-28"/>
     <use xlink:href="#DejaVuSans-34" transform="translate(39.013672 0)"/>
     <use xlink:href="#DejaVuSans-2e" transform="translate(102.636719 0)"/>
     <use xlink:href="#DejaVuSans-30" transform="translate(134.423828 0)"/>
     <use xlink:href="#DejaVuSans-2c" transform="translate(198.046875 0)"/>
     <use xlink:href="#DejaVuSans-20" transform="translate(229.833984 0)"/>
     <use xlink:href="#DejaVuSans-33" transform="translate(261.621094 0)"/>
     <use xlink:href="#DejaVuSans-2e" transform="translate(325.244141 0)"/>
     <use xlink:href="#DejaVuSans-30" transform="translate(357.03125 0)"/>
     <use xlink:href="#DejaVuSans-29" transform="translate(420.654297 0)"/>
    </g>
   </g>
   <g id="text_22">
    <!-- (6.0, 0.0) -->
    <g transform="translate(316.640333 202.799811) scale(0.09 -0.09)">
     <use xlink:href="#DejaVuSans-28"/>
     <use xlink:href="#DejaVuSans-36" transform="translate(39.013672 0)"/>
     <use xlink:href="#DejaVuSans-2e" transform="translate(102.636719 0)"/>
     <use xlink:href="#DejaVuSans-30" transform="translate(134.423828 0)"/>
     <use xlink:href="#DejaVuSans-2c" transform="translate(198.046875 0)"/>
     <use xlink:href="#DejaVuSans-20" transform="translate(229.833984 0)"/>
     <use xlink:href="#DejaVuSans-30" transform="translate(261.621094 0)"/>
     <use xlink:href="#DejaVuSans-2e" transform="translate(325.244141 0)"/>
     <use xlink:href="#DejaVuSans-30" transform="translate(357.03125 0)"/>
     <use xlink:href="#DejaVuSans-29" transform="translate(420.654297 0)"/>
    </g>
   </g>
   <g id="text_23">
    <!-- f(x) = -0.20476190476190403*x**4 +2.2333333333333267*x**3 -->
    <g transform="translate(65.3275 24.246775) scale(0.1 -0.1)">
     <defs>
      <path id="DejaVuSans-66" d="M 2375 4863 
L 2375 4384 
L 1825 4384 
Q 1516 4384 1395 4259 
Q 1275 4134 1275 3809 
L 1275 3500 
L 2222 3500 
L 2222 3053 
L 1275 3053 
L 1275 0 
L 697 0 
L 697 3053 
L 147 3053 
L 147 3500 
L 697 3500 
L 697 3744 
Q 697 4328 969 4595 
Q 1241 4863 1831 4863 
L 2375 4863 
z
" transform="scale(0.015625)"/>
      <path id="DejaVuSans-3d" d="M 678 2906 
L 4684 2906 
L 4684 2381 
L 678 2381 
L 678 2906 
z
M 678 1631 
L 4684 1631 
L 4684 1100 
L 678 1100 
L 678 1631 
z
" transform="scale(0.015625)"/>
      <path id="DejaVuSans-2a" d="M 3009 3897 
L 1888 3291 
L 3009 2681 
L 2828 2375 
L 1778 3009 
L 1778 1831 
L 1422 1831 
L 1422 3009 
L 372 2375 
L 191 2681 
L 1313 3291 
L 191 3897 
L 372 4206 
L 1422 3572 
L 1422 4750 
L 1778 4750 
L 1778 3572 
L 2828 4206 
L 3009 3897 
z
" transform="scale(0.015625)"/>
      <path id="DejaVuSans-2b" d="M 2944 4013 
L 2944 2272 
L 4684 2272 
L 4684 1741 
L 2944 1741 
L 2944 0 
L 2419 0 
L 2419 1741 
L 678 1741 
L 678 2272 
L 2419 2272 
L 2419 4013 
L 2944 4013 
z
" transform="scale(0.015625)"/>
     </defs>
     <use xlink:href="#DejaVuSans-66"/>
     <use xlink:href="#DejaVuSans-28" transform="translate(35.205078 0)"/>
     <use xlink:href="#DejaVuSans-78" transform="translate(74.21875 0)"/>
     <use xlink:href="#DejaVuSans-29" transform="translate(133.398438 0)"/>
     <use xlink:href="#DejaVuSans-20" transform="translate(172.412109 0)"/>
     <use xlink:href="#DejaVuSans-3d" transform="translate(204.199219 0)"/>
     <use xlink:href="#DejaVuSans-20" transform="translate(287.988281 0)"/>
     <use xlink:href="#DejaVuSans-2d" transform="translate(319.775391 0)"/>
     <use xlink:href="#DejaVuSans-30" transform="translate(355.859375 0)"/>
     <use xlink:href="#DejaVuSans-2e" transform="translate(419.482422 0)"/>
     <use xlink:href="#DejaVuSans-32" transform="translate(451.269531 0)"/>
     <use xlink:href="#DejaVuSans-30" transform="translate(514.892578 0)"/>
     <use xlink:href="#DejaVuSans-34" transform="translate(578.515625 0)"/>
     <use xlink:href="#DejaVuSans-37" transform="translate(642.138672 0)"/>
     <use xlink:href="#DejaVuSans-36" transform="translate(705.761719 0)"/>
     <use xlink:href="#DejaVuSans-31" transform="translate(769.384766 0)"/>
     <use xlink:href="#DejaVuSans-39" transform="translate(833.007812 0)"/>
     <use xlink:href="#DejaVuSans-30" transform="translate(896.630859 0)"/>
     <use xlink:href="#DejaVuSans-34" transform="translate(960.253906 0)"/>
     <use xlink:href="#DejaVuSans-37" transform="translate(1023.876953 0)"/>
     <use xlink:href="#DejaVuSans-36" transform="translate(1087.5 0)"/>
     <use xlink:href="#DejaVuSans-31" transform="translate(1151.123047 0)"/>
     <use xlink:href="#DejaVuSans-39" transform="translate(1214.746094 0)"/>
     <use xlink:href="#DejaVuSans-30" transform="translate(1278.369141 0)"/>
     <use xlink:href="#DejaVuSans-34" transform="translate(1341.992188 0)"/>
     <use xlink:href="#DejaVuSans-30" transform="translate(1405.615234 0)"/>
     <use xlink:href="#DejaVuSans-33" transform="translate(1469.238281 0)"/>
     <use xlink:href="#DejaVuSans-2a" transform="translate(1532.861328 0)"/>
     <use xlink:href="#DejaVuSans-78" transform="translate(1582.861328 0)"/>
     <use xlink:href="#DejaVuSans-2a" transform="translate(1642.041016 0)"/>
     <use xlink:href="#DejaVuSans-2a" transform="translate(1692.041016 0)"/>
     <use xlink:href="#DejaVuSans-34" transform="translate(1742.041016 0)"/>
     <use xlink:href="#DejaVuSans-20" transform="translate(1805.664062 0)"/>
     <use xlink:href="#DejaVuSans-2b" transform="translate(1837.451172 0)"/>
     <use xlink:href="#DejaVuSans-32" transform="translate(1921.240234 0)"/>
     <use xlink:href="#DejaVuSans-2e" transform="translate(1984.863281 0)"/>
     <use xlink:href="#DejaVuSans-32" transform="translate(2016.650391 0)"/>
     <use xlink:href="#DejaVuSans-33" transform="translate(2080.273438 0)"/>
     <use xlink:href="#DejaVuSans-33" transform="translate(2143.896484 0)"/>
     <use xlink:href="#DejaVuSans-33" transform="translate(2207.519531 0)"/>
     <use xlink:href="#DejaVuSans-33" transform="translate(2271.142578 0)"/>
     <use xlink:href="#DejaVuSans-33" transform="translate(2334.765625 0)"/>
     <use xlink:href="#DejaVuSans-33" transform="translate(2398.388672 0)"/>
     <use xlink:href="#DejaVuSans-33" transform="translate(2462.011719 0)"/>
     <use xlink:href="#DejaVuSans-33" transform="translate(2525.634766 0)"/>
     <use xlink:href="#DejaVuSans-33" transform="translate(2589.257812 0)"/>
     <use xlink:href="#DejaVuSans-33" transform="translate(2652.880859 0)"/>
     <use xlink:href="#DejaVuSans-33" transform="translate(2716.503906 0)"/>
     <use xlink:href="#DejaVuSans-33" transform="translate(2780.126953 0)"/>
     <use xlink:href="#DejaVuSans-32" transform="translate(2843.75 0)"/>
     <use xlink:href="#DejaVuSans-36" transform="translate(2907.373047 0)"/>
     <use xlink:href="#DejaVuSans-37" transform="translate(2970.996094 0)"/>
     <use xlink:href="#DejaVuSans-2a" transform="translate(3034.619141 0)"/>
     <use xlink:href="#DejaVuSans-78" transform="translate(3084.619141 0)"/>
     <use xlink:href="#DejaVuSans-2a" transform="translate(3143.798828 0)"/>
     <use xlink:href="#DejaVuSans-2a" transform="translate(3193.798828 0)"/>
     <use xlink:href="#DejaVuSans-33" transform="translate(3243.798828 0)"/>
    </g>
    <!-- -6.65238095238094*x**2 +1.766666666666676*x**1 -->
    <g transform="translate(94.041562 35.444587) scale(0.1 -0.1)">
     <use xlink:href="#DejaVuSans-2d"/>
     <use xlink:href="#DejaVuSans-36" transform="translate(36.083984 0)"/>
     <use xlink:href="#DejaVuSans-2e" transform="translate(99.707031 0)"/>
     <use xlink:href="#DejaVuSans-36" transform="translate(131.494141 0)"/>
     <use xlink:href="#DejaVuSans-35" transform="translate(195.117188 0)"/>
     <use xlink:href="#DejaVuSans-32" transform="translate(258.740234 0)"/>
     <use xlink:href="#DejaVuSans-33" transform="translate(322.363281 0)"/>
     <use xlink:href="#DejaVuSans-38" transform="translate(385.986328 0)"/>
     <use xlink:href="#DejaVuSans-30" transform="translate(449.609375 0)"/>
     <use xlink:href="#DejaVuSans-39" transform="translate(513.232422 0)"/>
     <use xlink:href="#DejaVuSans-35" transform="translate(576.855469 0)"/>
     <use xlink:href="#DejaVuSans-32" transform="translate(640.478516 0)"/>
     <use xlink:href="#DejaVuSans-33" transform="translate(704.101562 0)"/>
     <use xlink:href="#DejaVuSans-38" transform="translate(767.724609 0)"/>
     <use xlink:href="#DejaVuSans-30" transform="translate(831.347656 0)"/>
     <use xlink:href="#DejaVuSans-39" transform="translate(894.970703 0)"/>
     <use xlink:href="#DejaVuSans-34" transform="translate(958.59375 0)"/>
     <use xlink:href="#DejaVuSans-2a" transform="translate(1022.216797 0)"/>
     <use xlink:href="#DejaVuSans-78" transform="translate(1072.216797 0)"/>
     <use xlink:href="#DejaVuSans-2a" transform="translate(1131.396484 0)"/>
     <use xlink:href="#DejaVuSans-2a" transform="translate(1181.396484 0)"/>
     <use xlink:href="#DejaVuSans-32" transform="translate(1231.396484 0)"/>
     <use xlink:href="#DejaVuSans-20" transform="translate(1295.019531 0)"/>
     <use xlink:href="#DejaVuSans-2b" transform="translate(1326.806641 0)"/>
     <use xlink:href="#DejaVuSans-31" transform="translate(1410.595703 0)"/>
     <use xlink:href="#DejaVuSans-2e" transform="translate(1474.21875 0)"/>
     <use xlink:href="#DejaVuSans-37" transform="translate(1506.005859 0)"/>
     <use xlink:href="#DejaVuSans-36" transform="translate(1569.628906 0)"/>
     <use xlink:href="#DejaVuSans-36" transform="translate(1633.251953 0)"/>
     <use xlink:href="#DejaVuSans-36" transform="translate(1696.875 0)"/>
     <use xlink:href="#DejaVuSans-36" transform="translate(1760.498047 0)"/>
     <use xlink:href="#DejaVuSans-36" transform="translate(1824.121094 0)"/>
     <use xlink:href="#DejaVuSans-36" transform="translate(1887.744141 0)"/>
     <use xlink:href="#DejaVuSans-36" transform="translate(1951.367188 0)"/>
     <use xlink:href="#DejaVuSans-36" transform="translate(2014.990234 0)"/>
     <use xlink:href="#DejaVuSans-36" transform="translate(2078.613281 0)"/>
     <use xlink:href="#DejaVuSans-36" transform="translate(2142.236328 0)"/>
     <use xlink:href="#DejaVuSans-36" transform="translate(2205.859375 0)"/>
     <use xlink:href="#DejaVuSans-36" transform="translate(2269.482422 0)"/>
     <use xlink:href="#DejaVuSans-37" transform="translate(2333.105469 0)"/>
     <use xlink:href="#DejaVuSans-36" transform="translate(2396.728516 0)"/>
     <use xlink:href="#DejaVuSans-2a" transform="translate(2460.351562 0)"/>
     <use xlink:href="#DejaVuSans-78" transform="translate(2510.351562 0)"/>
     <use xlink:href="#DejaVuSans-2a" transform="translate(2569.53125 0)"/>
     <use xlink:href="#DejaVuSans-2a" transform="translate(2619.53125 0)"/>
     <use xlink:href="#DejaVuSans-31" transform="translate(2669.53125 0)"/>
    </g>
    <!-- +11.857142857142847 -->
    <g transform="translate(170.842344 46.6424) scale(0.1 -0.1)">
     <use xlink:href="#DejaVuSans-2b"/>
     <use xlink:href="#DejaVuSans-31" transform="translate(83.789062 0)"/>
     <use xlink:href="#DejaVuSans-31" transform="translate(147.412109 0)"/>
     <use xlink:href="#DejaVuSans-2e" transform="translate(211.035156 0)"/>
     <use xlink:href="#DejaVuSans-38" transform="translate(242.822266 0)"/>
     <use xlink:href="#DejaVuSans-35" transform="translate(306.445312 0)"/>
     <use xlink:href="#DejaVuSans-37" transform="translate(370.068359 0)"/>
     <use xlink:href="#DejaVuSans-31" transform="translate(433.691406 0)"/>
     <use xlink:href="#DejaVuSans-34" transform="translate(497.314453 0)"/>
     <use xlink:href="#DejaVuSans-32" transform="translate(560.9375 0)"/>
     <use xlink:href="#DejaVuSans-38" transform="translate(624.560547 0)"/>
     <use xlink:href="#DejaVuSans-35" transform="translate(688.183594 0)"/>
     <use xlink:href="#DejaVuSans-37" transform="translate(751.806641 0)"/>
     <use xlink:href="#DejaVuSans-31" transform="translate(815.429688 0)"/>
     <use xlink:href="#DejaVuSans-34" transform="translate(879.052734 0)"/>
     <use xlink:href="#DejaVuSans-32" transform="translate(942.675781 0)"/>
     <use xlink:href="#DejaVuSans-38" transform="translate(1006.298828 0)"/>
     <use xlink:href="#DejaVuSans-34" transform="translate(1069.921875 0)"/>
     <use xlink:href="#DejaVuSans-37" transform="translate(1133.544922 0)"/>
    </g>
   </g>
   <g id="legend_1">
    <g id="patch_7">
     <path d="M 358.612812 92.902125 
L 407.855 92.902125 
Q 409.855 92.902125 409.855 90.902125 
L 409.855 77.224 
Q 409.855 75.224 407.855 75.224 
L 358.612812 75.224 
Q 356.612812 75.224 356.612812 77.224 
L 356.612812 90.902125 
Q 356.612812 92.902125 358.612812 92.902125 
z
" style="fill: #ffffff; opacity: 0.8; stroke: #cccccc; stroke-linejoin: miter"/>
    </g>
    <g id="line2d_39">
     <path d="M 360.612812 83.322437 
L 370.612812 83.322437 
L 380.612812 83.322437 
" style="fill: none; stroke: #a18262; stroke-width: 1.5; stroke-linecap: square"/>
    </g>
    <g id="text_24">
     <!-- f(x) -->
     <g transform="translate(388.612812 86.822437) scale(0.1 -0.1)">
      <use xlink:href="#DejaVuSans-66"/>
      <use xlink:href="#DejaVuSans-28" transform="translate(35.205078 0)"/>
      <use xlink:href="#DejaVuSans-78" transform="translate(74.21875 0)"/>
      <use xlink:href="#DejaVuSans-29" transform="translate(133.398438 0)"/>
     </g>
    </g>
   </g>
  </g>
 </g>
 <defs>
  <clipPath id="pf2861fff87">
   <rect x="46.55" y="70.224" width="368.305" height="175.816"/>
  </clipPath>
 </defs>
</svg>
